# Blender v3.0.1 OBJ File: 'wave.blend'
# www.blender.org
mtllib wave.mtl
o Cube
v 1.000000 2.500000 -1.000000
v 1.000000 -2.500000 -1.000000
v 1.000000 2.500000 1.000000
v 1.000000 -2.500000 1.000000
v -1.000000 2.500000 -1.000000
v -1.000000 -2.500000 -1.000000
v -1.000000 2.500000 1.000000
v -1.000000 -2.500000 1.000000
vt 0.000100 0.000100
vt 0.999900 0.000100
vt 0.999900 0.999900
vt 0.000100 0.999900
vt 0.000100 0.999900
vt 0.000100 0.000100
vt 0.999900 0.000100
vt 0.999900 0.999900
vt 0.999900 0.000100
vt 0.000100 0.999900
vt 0.000100 0.000100
vt 0.999900 0.000100
vt 0.999900 0.999900
vt 0.000100 0.999900
vt 0.000100 0.999900
vt 0.999900 0.000100
vt 0.999900 0.000100
vt 0.999900 0.999900
vt 0.000100 0.999900
vt 0.000100 0.000100
vn 0.0000 1.0000 0.0000
vn 0.0000 0.0000 1.0000
vn -1.0000 0.0000 0.0000
vn 0.0000 -1.0000 0.0000
vn 1.0000 0.0000 0.0000
vn 0.0000 0.0000 -1.0000
usemtl Material
s off
f 1/1/1 5/2/1 7/3/1 3/4/1
f 4/5/2 3/6/2 7/7/2 8/8/2
f 8/9/3 7/3/3 5/10/3 6/11/3
f 6/11/4 2/12/4 4/13/4 8/14/4
f 2/15/5 1/1/5 3/16/5 4/13/5
f 6/17/6 5/18/6 1/19/6 2/20/6
o Cube.001
v 0.127607 0.998675 -1.652599
v 0.127607 -2.501325 -1.652599
v 0.127607 0.998675 0.347401
v 0.127607 -2.501325 0.347401
v -1.872393 0.998675 -1.652599
v -1.872393 -2.501325 -1.652599
v -1.872393 0.998675 0.347401
v -1.872393 -2.501325 0.347401
vt 0.000100 0.000100
vt 0.999900 0.000100
vt 0.999900 0.999900
vt 0.000100 0.999900
vt 0.000100 0.999900
vt 0.000100 0.000100
vt 0.999900 0.000100
vt 0.999900 0.999900
vt 0.999900 0.000100
vt 0.000100 0.999900
vt 0.000100 0.000100
vt 0.999900 0.000100
vt 0.999900 0.999900
vt 0.000100 0.999900
vt 0.000100 0.999900
vt 0.999900 0.000100
vt 0.999900 0.000100
vt 0.999900 0.999900
vt 0.000100 0.999900
vt 0.000100 0.000100
vn 0.0000 1.0000 0.0000
vn 0.0000 0.0000 1.0000
vn -1.0000 0.0000 0.0000
vn 0.0000 -1.0000 0.0000
vn 1.0000 0.0000 0.0000
vn 0.0000 0.0000 -1.0000
usemtl Material.001
s off
f 9/21/7 13/22/7 15/23/7 11/24/7
f 12/25/8 11/26/8 15/27/8 16/28/8
f 16/29/9 15/23/9 13/30/9 14/31/9
f 14/31/10 10/32/10 12/33/10 16/34/10
f 10/35/11 9/21/11 11/36/11 12/33/11
f 14/37/12 13/38/12 9/39/12 10/40/12
o Cube.002
v 1.307419 2.292842 -1.324611
v 1.307419 -2.490510 -1.324611
v 1.307419 2.292842 0.675389
v 1.307419 -2.490510 0.675389
v -0.692581 2.292842 -1.324611
v -0.692581 -2.490510 -1.324611
v -0.692581 2.292842 0.675389
v -0.692581 -2.490510 0.675389
vt 0.000100 0.000100
vt 0.999900 0.000100
vt 0.999900 0.999900
vt 0.000100 0.999900
vt 0.000100 0.999900
vt 0.000100 0.000100
vt 0.999900 0.000100
vt 0.999900 0.999900
vt 0.999900 0.000100
vt 0.000100 0.999900
vt 0.000100 0.000100
vt 0.999900 0.000100
vt 0.999900 0.999900
vt 0.000100 0.999900
vt 0.000100 0.999900
vt 0.999900 0.000100
vt 0.999900 0.000100
vt 0.999900 0.999900
vt 0.000100 0.999900
vt 0.000100 0.000100
vn 0.0000 1.0000 0.0000
vn 0.0000 0.0000 1.0000
vn -1.0000 0.0000 0.0000
vn 0.0000 -1.0000 0.0000
vn 1.0000 0.0000 0.0000
vn 0.0000 0.0000 -1.0000
usemtl Material.002
s off
f 17/41/13 21/42/13 23/43/13 19/44/13
f 20/45/14 19/46/14 23/47/14 24/48/14
f 24/49/15 23/43/15 21/50/15 22/51/15
f 22/51/16 18/52/16 20/53/16 24/54/16
f 18/55/17 17/41/17 19/56/17 20/53/17
f 22/57/18 21/58/18 17/59/18 18/60/18
o Cube.003
v 2.423531 0.998675 -1.684340
v 2.423531 -2.501325 -1.684340
v 2.423531 0.998675 0.315660
v 2.423531 -2.501325 0.315660
v 0.423530 0.998675 -1.684340
v 0.423530 -2.501325 -1.684340
v 0.423530 0.998675 0.315660
v 0.423530 -2.501325 0.315660
vt 0.000100 0.000100
vt 0.999900 0.000100
vt 0.999900 0.999900
vt 0.000100 0.999900
vt 0.000100 0.999900
vt 0.000100 0.000100
vt 0.999900 0.000100
vt 0.999900 0.999900
vt 0.999900 0.000100
vt 0.000100 0.999900
vt 0.000100 0.000100
vt 0.999900 0.000100
vt 0.999900 0.999900
vt 0.000100 0.999900
vt 0.000100 0.999900
vt 0.999900 0.000100
vt 0.999900 0.000100
vt 0.999900 0.999900
vt 0.000100 0.999900
vt 0.000100 0.000100
vn 0.0000 1.0000 0.0000
vn 0.0000 0.0000 1.0000
vn -1.0000 0.0000 0.0000
vn 0.0000 -1.0000 0.0000
vn 1.0000 0.0000 0.0000
vn 0.0000 0.0000 -1.0000
usemtl Material.003
s off
f 25/61/19 29/62/19 31/63/19 27/64/19
f 28/65/20 27/66/20 31/67/20 32/68/20
f 32/69/21 31/63/21 29/70/21 30/71/21
f 30/71/22 26/72/22 28/73/22 32/74/22
f 26/75/23 25/61/23 27/76/23 28/73/23
f 30/77/24 29/78/24 25/79/24 26/80/24
o Cube.004
v 4.649971 -0.067626 -0.346061
v 4.649971 -2.517626 -0.346061
v 4.649971 -0.067626 1.053939
v 4.649971 -2.517626 1.053939
v 3.249971 -0.067626 -0.346061
v 3.249971 -2.517626 -0.346061
v 3.249971 -0.067626 1.053939
v 3.249971 -2.517626 1.053939
vt 0.000100 0.000100
vt 0.999900 0.000100
vt 0.999900 0.999900
vt 0.000100 0.999900
vt 0.000100 0.999900
vt 0.000100 0.000100
vt 0.999900 0.000100
vt 0.999900 0.999900
vt 0.999900 0.000100
vt 0.000100 0.999900
vt 0.000100 0.000100
vt 0.999900 0.000100
vt 0.999900 0.999900
vt 0.000100 0.999900
vt 0.000100 0.999900
vt 0.999900 0.000100
vt 0.999900 0.000100
vt 0.999900 0.999900
vt 0.000100 0.999900
vt 0.000100 0.000100
vn 0.0000 1.0000 0.0000
vn 0.0000 0.0000 1.0000
vn -1.0000 0.0000 0.0000
vn 0.0000 -1.0000 0.0000
vn 1.0000 0.0000 0.0000
vn 0.0000 0.0000 -1.0000
usemtl Material.004
s off
f 33/81/25 37/82/25 39/83/25 35/84/25
f 36/85/26 35/86/26 39/87/26 40/88/26
f 40/89/27 39/83/27 37/90/27 38/91/27
f 38/91/28 34/92/28 36/93/28 40/94/28
f 34/95/29 33/81/29 35/96/29 36/93/29
f 38/97/30 37/98/30 33/99/30 34/100/30
o Cube.005
v 2.849262 -0.067626 -2.555607
v 2.849262 -2.517626 -2.555607
v 2.849262 -0.067626 -1.155607
v 2.849262 -2.517626 -1.155607
v 1.449262 -0.067626 -2.555607
v 1.449262 -2.517626 -2.555607
v 1.449262 -0.067626 -1.155607
v 1.449262 -2.517626 -1.155607
vt 0.000100 0.000100
vt 0.999900 0.000100
vt 0.999900 0.999900
vt 0.000100 0.999900
vt 0.000100 0.999900
vt 0.000100 0.000100
vt 0.999900 0.000100
vt 0.999900 0.999900
vt 0.999900 0.000100
vt 0.000100 0.999900
vt 0.000100 0.000100
vt 0.999900 0.000100
vt 0.999900 0.999900
vt 0.000100 0.999900
vt 0.000100 0.999900
vt 0.999900 0.000100
vt 0.999900 0.000100
vt 0.999900 0.999900
vt 0.000100 0.999900
vt 0.000100 0.000100
vn 0.0000 1.0000 0.0000
vn 0.0000 0.0000 1.0000
vn -1.0000 0.0000 0.0000
vn 0.0000 -1.0000 0.0000
vn 1.0000 0.0000 0.0000
vn 0.0000 0.0000 -1.0000
usemtl Material.005
s off
f 41/101/31 45/102/31 47/103/31 43/104/31
f 44/105/32 43/106/32 47/107/32 48/108/32
f 48/109/33 47/103/33 45/110/33 46/111/33
f 46/111/34 42/112/34 44/113/34 48/114/34
f 42/115/35 41/101/35 43/116/35 44/113/35
f 46/117/36 45/118/36 41/119/36 42/120/36
o Cube.006
v 1.440314 0.365557 -2.717167
v 1.440314 -2.500943 -2.717167
v 1.440314 0.365557 -1.317167
v 1.440314 -2.500943 -1.317167
v 0.040314 0.365557 -2.717167
v 0.040314 -2.500943 -2.717167
v 0.040314 0.365557 -1.317167
v 0.040314 -2.500943 -1.317167
vt 0.000100 0.000100
vt 0.999900 0.000100
vt 0.999900 0.999900
vt 0.000100 0.999900
vt 0.000100 0.999900
vt 0.000100 0.000100
vt 0.999900 0.000100
vt 0.999900 0.999900
vt 0.999900 0.000100
vt 0.000100 0.999900
vt 0.000100 0.000100
vt 0.999900 0.000100
vt 0.999900 0.999900
vt 0.000100 0.999900
vt 0.000100 0.999900
vt 0.999900 0.000100
vt 0.999900 0.000100
vt 0.999900 0.999900
vt 0.000100 0.999900
vt 0.000100 0.000100
vn 0.0000 1.0000 0.0000
vn 0.0000 0.0000 1.0000
vn -1.0000 0.0000 0.0000
vn 0.0000 -1.0000 0.0000
vn 1.0000 0.0000 0.0000
vn 0.0000 0.0000 -1.0000
usemtl Material.006
s off
f 49/121/37 53/122/37 55/123/37 51/124/37
f 52/125/38 51/126/38 55/127/38 56/128/38
f 56/129/39 55/123/39 53/130/39 54/131/39
f 54/131/40 50/132/40 52/133/40 56/134/40
f 50/135/41 49/121/41 51/136/41 52/133/41
f 54/137/42 53/138/42 49/139/42 50/140/42
o Cube.007
v 6.143425 1.747149 -1.469890
v 6.143425 -2.500468 -1.469890
v 6.143425 1.747149 0.530110
v 6.143425 -2.500468 0.530110
v 4.143425 1.747149 -1.469890
v 4.143425 -2.500468 -1.469890
v 4.143425 1.747149 0.530110
v 4.143425 -2.500468 0.530110
vt 0.000100 0.000100
vt 0.999900 0.000100
vt 0.999900 0.999900
vt 0.000100 0.999900
vt 0.000100 0.999900
vt 0.000100 0.000100
vt 0.999900 0.000100
vt 0.999900 0.999900
vt 0.999900 0.000100
vt 0.000100 0.999900
vt 0.000100 0.000100
vt 0.999900 0.000100
vt 0.999900 0.999900
vt 0.000100 0.999900
vt 0.000100 0.999900
vt 0.999900 0.000100
vt 0.999900 0.000100
vt 0.999900 0.999900
vt 0.000100 0.999900
vt 0.000100 0.000100
vn 0.0000 1.0000 0.0000
vn 0.0000 0.0000 1.0000
vn -1.0000 0.0000 0.0000
vn 0.0000 -1.0000 0.0000
vn 1.0000 0.0000 0.0000
vn 0.0000 0.0000 -1.0000
usemtl Material.007
s off
f 57/141/43 61/142/43 63/143/43 59/144/43
f 60/145/44 59/146/44 63/147/44 64/148/44
f 64/149/45 63/143/45 61/150/45 62/151/45
f 62/151/46 58/152/46 60/153/46 64/154/46
f 58/155/47 57/141/47 59/156/47 60/153/47
f 62/157/48 61/158/48 57/159/48 58/160/48
o Cube.009
v 3.294503 -0.802646 -3.674217
v 3.294503 -2.517646 -3.674217
v 3.294503 -0.802646 -2.274217
v 3.294503 -2.517646 -2.274217
v 1.894503 -0.802646 -3.674217
v 1.894503 -2.517646 -3.674217
v 1.894503 -0.802646 -2.274217
v 1.894503 -2.517646 -2.274217
vt 0.000100 0.000100
vt 0.999900 0.000100
vt 0.999900 0.999900
vt 0.000100 0.999900
vt 0.000100 0.999900
vt 0.000100 0.000100
vt 0.999900 0.000100
vt 0.999900 0.999900
vt 0.999900 0.000100
vt 0.000100 0.999900
vt 0.000100 0.000100
vt 0.999900 0.000100
vt 0.999900 0.999900
vt 0.000100 0.999900
vt 0.000100 0.999900
vt 0.999900 0.000100
vt 0.999900 0.000100
vt 0.999900 0.999900
vt 0.000100 0.999900
vt 0.000100 0.000100
vn 0.0000 1.0000 0.0000
vn 0.0000 0.0000 1.0000
vn -1.0000 0.0000 0.0000
vn 0.0000 -1.0000 0.0000
vn 1.0000 0.0000 0.0000
vn 0.0000 0.0000 -1.0000
usemtl Material.009
s off
f 65/161/49 69/162/49 71/163/49 67/164/49
f 68/165/50 67/166/50 71/167/50 72/168/50
f 72/169/51 71/163/51 69/170/51 70/171/51
f 70/171/52 66/172/52 68/173/52 72/174/52
f 66/175/53 65/161/53 67/176/53 68/173/53
f 70/177/54 69/178/54 65/179/54 66/180/54
o Cube.008
v 1.970100 -0.521225 -3.843759
v 1.970100 -2.527775 -3.843759
v 1.970100 -0.521225 -2.443759
v 1.970100 -2.527775 -2.443759
v 0.570100 -0.521225 -3.843759
v 0.570100 -2.527775 -3.843759
v 0.570100 -0.521225 -2.443759
v 0.570100 -2.527775 -2.443759
vt 0.000100 0.000100
vt 0.999900 0.000100
vt 0.999900 0.999900
vt 0.000100 0.999900
vt 0.000100 0.999900
vt 0.000100 0.000100
vt 0.999900 0.000100
vt 0.999900 0.999900
vt 0.999900 0.000100
vt 0.000100 0.999900
vt 0.000100 0.000100
vt 0.999900 0.000100
vt 0.999900 0.999900
vt 0.000100 0.999900
vt 0.000100 0.999900
vt 0.999900 0.000100
vt 0.999900 0.000100
vt 0.999900 0.999900
vt 0.000100 0.999900
vt 0.000100 0.000100
vn 0.0000 1.0000 0.0000
vn 0.0000 0.0000 1.0000
vn -1.0000 0.0000 0.0000
vn 0.0000 -1.0000 0.0000
vn 1.0000 0.0000 0.0000
vn 0.0000 0.0000 -1.0000
usemtl Material.008
s off
f 73/181/55 77/182/55 79/183/55 75/184/55
f 76/185/56 75/186/56 79/187/56 80/188/56
f 80/189/57 79/183/57 77/190/57 78/191/57
f 78/191/58 74/192/58 76/193/58 80/194/58
f 74/195/59 73/181/59 75/196/59 76/193/59
f 78/197/60 77/198/60 73/199/60 74/200/60
o 立方体
v -3.944350 -2.414623 0.801414
v -3.944350 -0.814623 0.801414
v -3.944350 -2.414623 -0.798586
v -3.944350 -0.814623 -0.798586
v -2.344350 -2.414623 0.801414
v -2.344350 -0.814623 0.801414
v -2.344350 -2.414623 -0.798586
v -2.344350 -0.814623 -0.798586
vt 0.999900 0.000100
vt 0.999900 0.999900
vt 0.000100 0.999900
vt 0.000100 0.000100
vt 0.999900 0.000100
vt 0.999900 0.999900
vt 0.000100 0.999900
vt 0.000100 0.000100
vt 0.000100 0.999900
vt 0.000100 0.000100
vt 0.999900 0.000100
vt 0.999900 0.999900
vt 0.000100 0.999900
vt 0.000100 0.000100
vt 0.999900 0.000100
vt 0.999900 0.999900
vt 0.999900 0.000100
vt 0.000100 0.999900
vt 0.999900 0.000100
vt 0.000100 0.999900
vn -1.0000 0.0000 0.0000
vn 0.0000 0.0000 -1.0000
vn 1.0000 0.0000 0.0000
vn 0.0000 0.0000 1.0000
vn 0.0000 -1.0000 0.0000
vn 0.0000 1.0000 0.0000
usemtl 材质
s off
f 81/201/61 82/202/61 84/203/61 83/204/61
f 83/205/62 84/206/62 88/207/62 87/208/62
f 87/209/63 88/210/63 86/211/63 85/212/63
f 85/213/64 86/214/64 82/215/64 81/216/64
f 83/204/65 87/217/65 85/212/65 81/218/65
f 88/210/66 84/219/66 82/202/66 86/220/66
o 立方体.001
v -4.875438 -2.391864 -1.016760
v -4.875438 -1.751864 -1.016760
v -4.875438 -2.391864 -1.656760
v -4.875438 -1.751864 -1.656760
v -4.235438 -2.391864 -1.016760
v -4.235438 -1.751864 -1.016760
v -4.235438 -2.391864 -1.656760
v -4.235438 -1.751864 -1.656760
vt 0.999900 0.000100
vt 0.999900 0.999900
vt 0.000100 0.999900
vt 0.000100 0.000100
vt 0.999900 0.000100
vt 0.999900 0.999900
vt 0.000100 0.999900
vt 0.000100 0.000100
vt 0.000100 0.999900
vt 0.000100 0.000100
vt 0.999900 0.000100
vt 0.999900 0.999900
vt 0.000100 0.999900
vt 0.000100 0.000100
vt 0.999900 0.000100
vt 0.999900 0.999900
vt 0.999900 0.000100
vt 0.000100 0.999900
vt 0.999900 0.000100
vt 0.000100 0.999900
vn -1.0000 0.0000 0.0000
vn 0.0000 0.0000 -1.0000
vn 1.0000 0.0000 0.0000
vn 0.0000 0.0000 1.0000
vn 0.0000 -1.0000 0.0000
vn 0.0000 1.0000 0.0000
usemtl 材质.001
s off
f 89/221/67 90/222/67 92/223/67 91/224/67
f 91/225/68 92/226/68 96/227/68 95/228/68
f 95/229/69 96/230/69 94/231/69 93/232/69
f 93/233/70 94/234/70 90/235/70 89/236/70
f 91/224/71 95/237/71 93/232/71 89/238/71
f 96/230/72 92/239/72 90/222/72 94/240/72
o Cube.011
v 8.820019 -0.651544 -0.138550
v 8.820019 -2.541098 -0.138550
v 8.820019 -0.651544 1.261450
v 8.820019 -2.541098 1.261450
v 7.420019 -0.651544 -0.138550
v 7.420019 -2.541098 -0.138550
v 7.420019 -0.651544 1.261450
v 7.420019 -2.541098 1.261450
vt 0.000100 0.000100
vt 0.999900 0.000100
vt 0.999900 0.999900
vt 0.000100 0.999900
vt 0.000100 0.999900
vt 0.000100 0.000100
vt 0.999900 0.000100
vt 0.999900 0.999900
vt 0.999900 0.000100
vt 0.000100 0.999900
vt 0.000100 0.000100
vt 0.999900 0.000100
vt 0.999900 0.999900
vt 0.000100 0.999900
vt 0.000100 0.999900
vt 0.999900 0.000100
vt 0.999900 0.000100
vt 0.999900 0.999900
vt 0.000100 0.999900
vt 0.000100 0.000100
vn 0.0000 1.0000 0.0000
vn 0.0000 0.0000 1.0000
vn -1.0000 0.0000 0.0000
vn 0.0000 -1.0000 0.0000
vn 1.0000 0.0000 0.0000
vn 0.0000 0.0000 -1.0000
usemtl Material.011
s off
f 97/241/73 101/242/73 103/243/73 99/244/73
f 100/245/74 99/246/74 103/247/74 104/248/74
f 104/249/75 103/243/75 101/250/75 102/251/75
f 102/251/76 98/252/76 100/253/76 104/254/76
f 98/255/77 97/241/77 99/256/77 100/253/77
f 102/257/78 101/258/78 97/259/78 98/260/78
o Cube.010
v 10.142565 -1.273859 -0.292193
v 10.142565 -2.474359 -0.292193
v 10.142565 -1.273859 1.107807
v 10.142565 -2.474359 1.107807
v 8.742565 -1.273859 -0.292193
v 8.742565 -2.474359 -0.292193
v 8.742565 -1.273859 1.107807
v 8.742565 -2.474359 1.107807
vt 0.000100 0.000100
vt 0.999900 0.000100
vt 0.999900 0.999900
vt 0.000100 0.999900
vt 0.000100 0.999900
vt 0.000100 0.000100
vt 0.999900 0.000100
vt 0.999900 0.999900
vt 0.999900 0.000100
vt 0.000100 0.999900
vt 0.000100 0.000100
vt 0.999900 0.000100
vt 0.999900 0.999900
vt 0.000100 0.999900
vt 0.000100 0.999900
vt 0.999900 0.000100
vt 0.999900 0.000100
vt 0.999900 0.999900
vt 0.000100 0.999900
vt 0.000100 0.000100
vn 0.0000 1.0000 0.0000
vn 0.0000 0.0000 1.0000
vn -1.0000 0.0000 0.0000
vn 0.0000 -1.0000 0.0000
vn 1.0000 0.0000 0.0000
vn 0.0000 0.0000 -1.0000
usemtl Material.010
s off
f 105/261/79 109/262/79 111/263/79 107/264/79
f 108/265/80 107/266/80 111/267/80 112/268/80
f 112/269/81 111/263/81 109/270/81 110/271/81
f 110/271/82 106/272/82 108/273/82 112/274/82
f 106/275/83 105/261/83 107/276/83 108/273/83
f 110/277/84 109/278/84 105/279/84 106/280/84
o Cube.013
v 6.220569 0.354001 0.401044
v 6.220569 -2.516227 0.401044
v 6.220569 0.354001 1.801044
v 6.220569 -2.516227 1.801044
v 4.820570 0.354001 0.401044
v 4.820570 -2.516227 0.401044
v 4.820570 0.354001 1.801044
v 4.820570 -2.516227 1.801044
vt 0.000100 0.000100
vt 0.999900 0.000100
vt 0.999900 0.999900
vt 0.000100 0.999900
vt 0.000100 0.999900
vt 0.000100 0.000100
vt 0.999900 0.000100
vt 0.999900 0.999900
vt 0.999900 0.000100
vt 0.000100 0.999900
vt 0.000100 0.000100
vt 0.999900 0.000100
vt 0.999900 0.999900
vt 0.000100 0.999900
vt 0.000100 0.999900
vt 0.999900 0.000100
vt 0.999900 0.000100
vt 0.999900 0.999900
vt 0.000100 0.999900
vt 0.000100 0.000100
vn 0.0000 1.0000 0.0000
vn 0.0000 0.0000 1.0000
vn -1.0000 0.0000 0.0000
vn 0.0000 -1.0000 0.0000
vn 1.0000 0.0000 0.0000
vn 0.0000 0.0000 -1.0000
usemtl Material.013
s off
f 113/281/85 117/282/85 119/283/85 115/284/85
f 116/285/86 115/286/86 119/287/86 120/288/86
f 120/289/87 119/283/87 117/290/87 118/291/87
f 118/291/88 114/292/88 116/293/88 120/294/88
f 114/295/89 113/281/89 115/296/89 116/293/89
f 118/297/90 117/298/90 113/299/90 114/300/90
o Cube.012
v 7.468913 -0.103392 0.400176
v 7.468913 -2.456440 0.400176
v 7.468913 -0.103392 1.800176
v 7.468913 -2.456440 1.800176
v 6.068913 -0.103392 0.400176
v 6.068913 -2.456440 0.400176
v 6.068913 -0.103392 1.800176
v 6.068913 -2.456440 1.800176
vt 0.000100 0.000100
vt 0.999900 0.000100
vt 0.999900 0.999900
vt 0.000100 0.999900
vt 0.000100 0.999900
vt 0.000100 0.000100
vt 0.999900 0.000100
vt 0.999900 0.999900
vt 0.999900 0.000100
vt 0.000100 0.999900
vt 0.000100 0.000100
vt 0.999900 0.000100
vt 0.999900 0.999900
vt 0.000100 0.999900
vt 0.000100 0.999900
vt 0.999900 0.000100
vt 0.999900 0.000100
vt 0.999900 0.999900
vt 0.000100 0.999900
vt 0.000100 0.000100
vn 0.0000 1.0000 0.0000
vn 0.0000 0.0000 1.0000
vn -1.0000 0.0000 0.0000
vn 0.0000 -1.0000 0.0000
vn 1.0000 0.0000 0.0000
vn 0.0000 0.0000 -1.0000
usemtl Material.012
s off
f 121/301/91 125/302/91 127/303/91 123/304/91
f 124/305/92 123/306/92 127/307/92 128/308/92
f 128/309/93 127/303/93 125/310/93 126/311/93
f 126/311/94 122/312/94 124/313/94 128/314/94
f 122/315/95 121/301/95 123/316/95 124/313/95
f 126/317/96 125/318/96 121/319/96 122/320/96
o 立方体.002
v 3.591107 -2.716884 -0.788438
v 3.591107 -2.076884 -0.788438
v 3.591107 -2.716884 -1.428438
v 3.591107 -2.076884 -1.428438
v 4.231107 -2.716884 -0.788438
v 4.231107 -2.076884 -0.788438
v 4.231107 -2.716884 -1.428438
v 4.231107 -2.076884 -1.428438
vt 0.999900 0.000100
vt 0.999900 0.999900
vt 0.000100 0.999900
vt 0.000100 0.000100
vt 0.999900 0.000100
vt 0.999900 0.999900
vt 0.000100 0.999900
vt 0.000100 0.000100
vt 0.000100 0.999900
vt 0.000100 0.000100
vt 0.999900 0.000100
vt 0.999900 0.999900
vt 0.000100 0.999900
vt 0.000100 0.000100
vt 0.999900 0.000100
vt 0.999900 0.999900
vt 0.999900 0.000100
vt 0.000100 0.999900
vt 0.999900 0.000100
vt 0.000100 0.999900
vn -1.0000 0.0000 0.0000
vn 0.0000 0.0000 -1.0000
vn 1.0000 0.0000 0.0000
vn 0.0000 0.0000 1.0000
vn 0.0000 -1.0000 0.0000
vn 0.0000 1.0000 0.0000
usemtl 材质.002
s off
f 129/321/97 130/322/97 132/323/97 131/324/97
f 131/325/98 132/326/98 136/327/98 135/328/98
f 135/329/99 136/330/99 134/331/99 133/332/99
f 133/333/100 134/334/100 130/335/100 129/336/100
f 131/324/101 135/337/101 133/332/101 129/338/101
f 136/330/102 132/339/102 130/322/102 134/340/102
o Cube.014
v 3.938628 -0.802646 0.341307
v 3.938628 -2.517646 0.341307
v 3.938628 -0.802646 1.741307
v 3.938628 -2.517646 1.741307
v 2.538628 -0.802646 0.341307
v 2.538628 -2.517646 0.341307
v 2.538628 -0.802646 1.741307
v 2.538628 -2.517646 1.741307
vt 0.000100 0.000100
vt 0.999900 0.000100
vt 0.999900 0.999900
vt 0.000100 0.999900
vt 0.000100 0.999900
vt 0.000100 0.000100
vt 0.999900 0.000100
vt 0.999900 0.999900
vt 0.999900 0.000100
vt 0.000100 0.999900
vt 0.000100 0.000100
vt 0.999900 0.000100
vt 0.999900 0.999900
vt 0.000100 0.999900
vt 0.000100 0.999900
vt 0.999900 0.000100
vt 0.999900 0.000100
vt 0.999900 0.999900
vt 0.000100 0.999900
vt 0.000100 0.000100
vn 0.0000 1.0000 0.0000
vn 0.0000 0.0000 1.0000
vn -1.0000 0.0000 0.0000
vn 0.0000 -1.0000 0.0000
vn 1.0000 0.0000 0.0000
vn 0.0000 0.0000 -1.0000
usemtl Material.014
s off
f 137/341/103 141/342/103 143/343/103 139/344/103
f 140/345/104 139/346/104 143/347/104 144/348/104
f 144/349/105 143/343/105 141/350/105 142/351/105
f 142/351/106 138/352/106 140/353/106 144/354/106
f 138/355/107 137/341/107 139/356/107 140/353/107
f 142/357/108 141/358/108 137/359/108 138/360/108
o Cube.015
v 7.271143 0.998675 -2.471792
v 7.271143 -2.501325 -2.471792
v 7.271143 0.998675 -0.471792
v 7.271143 -2.501325 -0.471792
v 5.271143 0.998675 -2.471792
v 5.271143 -2.501325 -2.471792
v 5.271143 0.998675 -0.471792
v 5.271143 -2.501325 -0.471792
vt 0.000100 0.000100
vt 0.999900 0.000100
vt 0.999900 0.999900
vt 0.000100 0.999900
vt 0.000100 0.999900
vt 0.000100 0.000100
vt 0.999900 0.000100
vt 0.999900 0.999900
vt 0.999900 0.000100
vt 0.000100 0.999900
vt 0.000100 0.000100
vt 0.999900 0.000100
vt 0.999900 0.999900
vt 0.000100 0.999900
vt 0.000100 0.999900
vt 0.999900 0.000100
vt 0.999900 0.000100
vt 0.999900 0.999900
vt 0.000100 0.999900
vt 0.000100 0.000100
vn 0.0000 1.0000 0.0000
vn 0.0000 0.0000 1.0000
vn -1.0000 0.0000 0.0000
vn 0.0000 -1.0000 0.0000
vn 1.0000 0.0000 0.0000
vn 0.0000 0.0000 -1.0000
usemtl Material.015
s off
f 145/361/109 149/362/109 151/363/109 147/364/109
f 148/365/110 147/366/110 151/367/110 152/368/110
f 152/369/111 151/363/111 149/370/111 150/371/111
f 150/371/112 146/372/112 148/373/112 152/374/112
f 146/375/113 145/361/113 147/376/113 148/373/113
f 150/377/114 149/378/114 145/379/114 146/380/114
o Cube.016
v 5.897483 0.271443 -3.851795
v 5.897483 -2.528557 -3.851795
v 5.897483 0.271443 -1.851795
v 5.897483 -2.528557 -1.851795
v 4.097483 0.271443 -3.851795
v 4.097483 -2.528557 -3.851795
v 4.097483 0.271443 -1.851795
v 4.097483 -2.528557 -1.851795
vt 0.000100 0.000100
vt 0.999900 0.000100
vt 0.999900 0.999900
vt 0.000100 0.999900
vt 0.000100 0.999900
vt 0.000100 0.000100
vt 0.999900 0.000100
vt 0.999900 0.999900
vt 0.999900 0.000100
vt 0.000100 0.999900
vt 0.000100 0.000100
vt 0.999900 0.000100
vt 0.999900 0.999900
vt 0.000100 0.999900
vt 0.000100 0.999900
vt 0.999900 0.000100
vt 0.999900 0.000100
vt 0.999900 0.999900
vt 0.000100 0.999900
vt 0.000100 0.000100
vn 0.0000 1.0000 0.0000
vn 0.0000 0.0000 1.0000
vn -1.0000 0.0000 0.0000
vn 0.0000 -1.0000 0.0000
vn 1.0000 0.0000 0.0000
vn 0.0000 0.0000 -1.0000
usemtl Material.016
s off
f 153/381/115 157/382/115 159/383/115 155/384/115
f 156/385/116 155/386/116 159/387/116 160/388/116
f 160/389/117 159/383/117 157/390/117 158/391/117
f 158/391/118 154/392/118 156/393/118 160/394/118
f 154/395/119 153/381/119 155/396/119 156/393/119
f 158/397/120 157/398/120 153/399/120 154/400/120
