# Blender v3.0.1 OBJ File: 'hand.blend'
# www.blender.org
mtllib hand.mtl
o Cube
v 3.000000 2.000000 -3.000000
v 3.000000 -2.000000 -3.000000
v 3.000000 2.000000 3.000000
v 3.000000 -2.000000 3.000000
v -3.000000 2.000000 -3.000000
v -3.000000 -2.000000 -3.000000
v -3.000000 2.000000 3.000000
v -3.000000 -2.000000 3.000000
vt 0.000100 0.000100
vt 0.999900 0.000100
vt 0.999900 0.999900
vt 0.000100 0.999900
vt 0.000100 0.999900
vt 0.000100 0.000100
vt 0.999900 0.000100
vt 0.999900 0.999900
vt 0.999900 0.000100
vt 0.000100 0.999900
vt 0.000100 0.000100
vt 0.999900 0.000100
vt 0.999900 0.999900
vt 0.000100 0.999900
vt 0.000100 0.999900
vt 0.999900 0.000100
vt 0.999900 0.000100
vt 0.999900 0.999900
vt 0.000100 0.999900
vt 0.000100 0.000100
vn 0.0000 1.0000 0.0000
vn 0.0000 0.0000 1.0000
vn -1.0000 0.0000 0.0000
vn 0.0000 -1.0000 0.0000
vn 1.0000 0.0000 0.0000
vn 0.0000 0.0000 -1.0000
usemtl Material
s off
f 1/1/1 5/2/1 7/3/1 3/4/1
f 4/5/2 3/6/2 7/7/2 8/8/2
f 8/9/3 7/3/3 5/10/3 6/11/3
f 6/11/4 2/12/4 4/13/4 8/14/4
f 2/15/5 1/1/5 3/16/5 4/13/5
f 6/17/6 5/18/6 1/19/6 2/20/6
o 立方体
v 3.836282 -1.113676 0.568730
v 3.720439 0.881858 0.511684
v 7.352765 -0.980879 -1.926802
v 7.236921 1.014655 -1.983848
v 4.841740 -1.014655 1.990800
v 4.725896 0.980879 1.933753
v 8.358222 -0.881858 -0.504732
v 8.242378 1.113676 -0.561778
vt 0.999900 0.000100
vt 0.999900 0.999900
vt 0.000100 0.999900
vt 0.000100 0.000100
vt 0.999900 0.000100
vt 0.999900 0.999900
vt 0.000100 0.999900
vt 0.000100 0.000100
vt 0.000100 0.999900
vt 0.000100 0.000100
vt 0.999900 0.000100
vt 0.999900 0.999900
vt 0.000100 0.999900
vt 0.000100 0.000100
vt 0.999900 0.000100
vt 0.999900 0.999900
vt 0.999900 0.000100
vt 0.000100 0.999900
vt 0.999900 0.000100
vt 0.000100 0.999900
vn -0.5764 -0.0568 -0.8152
vn 0.8151 0.0308 -0.5785
vn 0.5764 0.0568 0.8152
vn -0.8151 -0.0308 0.5785
vn 0.0579 -0.9979 0.0285
vn -0.0579 0.9979 -0.0285
usemtl 材质
s off
f 9/21/7 10/22/7 12/23/7 11/24/7
f 11/25/8 12/26/8 16/27/8 15/28/8
f 15/29/9 16/30/9 14/31/9 13/32/9
f 13/33/10 14/34/10 10/35/10 9/36/10
f 11/24/11 15/37/11 13/32/11 9/38/11
f 16/30/12 12/39/12 10/22/12 14/40/12
o 立方体.001
v 8.146858 -1.113676 -2.408318
v 8.031014 0.881858 -2.465364
v 11.663341 -0.980879 -4.903850
v 11.547497 1.014655 -4.960896
v 9.152315 -1.014655 -0.986248
v 9.036471 0.980879 -1.043295
v 12.668797 -0.881858 -3.481780
v 12.552954 1.113676 -3.538826
vt 0.999900 0.000100
vt 0.999900 0.999900
vt 0.000100 0.999900
vt 0.000100 0.000100
vt 0.999900 0.000100
vt 0.999900 0.999900
vt 0.000100 0.999900
vt 0.000100 0.000100
vt 0.000100 0.999900
vt 0.000100 0.000100
vt 0.999900 0.000100
vt 0.999900 0.999900
vt 0.000100 0.999900
vt 0.000100 0.000100
vt 0.999900 0.000100
vt 0.999900 0.999900
vt 0.999900 0.000100
vt 0.000100 0.999900
vt 0.999900 0.000100
vt 0.000100 0.999900
vn -0.5764 -0.0568 -0.8152
vn 0.8151 0.0308 -0.5785
vn 0.5764 0.0568 0.8152
vn -0.8151 -0.0308 0.5785
vn 0.0579 -0.9979 0.0285
vn -0.0579 0.9979 -0.0285
usemtl 材质.001
s off
f 17/41/13 18/42/13 20/43/13 19/44/13
f 19/45/14 20/46/14 24/47/14 23/48/14
f 23/49/15 24/50/15 22/51/15 21/52/15
f 21/53/16 22/54/16 18/55/16 17/56/16
f 19/44/17 23/57/17 21/52/17 17/58/17
f 24/50/18 20/59/18 18/42/18 22/60/18
o 立方体.003
v 2.868761 -1.125477 -4.185810
v 2.739726 0.870349 -4.180440
v 4.887008 -0.983878 -8.316988
v 4.757973 1.011948 -8.311619
v 4.661342 -1.011948 -3.306171
v 4.532307 0.983878 -3.300802
v 6.679588 -0.870349 -7.437349
v 6.550553 1.125477 -7.431979
vt 0.999900 0.000100
vt 0.999900 0.999900
vt 0.000100 0.999900
vt 0.000100 0.000100
vt 0.999900 0.000100
vt 0.999900 0.999900
vt 0.000100 0.999900
vt 0.000100 0.000100
vt 0.000100 0.999900
vt 0.000100 0.000100
vt 0.999900 0.000100
vt 0.999900 0.999900
vt 0.000100 0.999900
vt 0.000100 0.000100
vt 0.999900 0.000100
vt 0.999900 0.999900
vt 0.999900 0.000100
vt 0.000100 0.999900
vt 0.999900 0.000100
vt 0.000100 0.999900
vn -0.8963 -0.0568 -0.4398
vn 0.4387 0.0308 -0.8981
vn 0.8963 0.0568 0.4398
vn -0.4387 -0.0308 0.8981
vn 0.0645 -0.9979 -0.0027
vn -0.0645 0.9979 0.0027
usemtl 材质.003
s off
f 25/61/19 26/62/19 28/63/19 27/64/19
f 27/65/20 28/66/20 32/67/20 31/68/20
f 31/69/21 32/70/21 30/71/21 29/72/21
f 29/73/22 30/74/22 26/75/22 25/76/22
f 27/64/23 31/77/23 29/72/23 25/78/23
f 32/70/24 28/79/24 26/62/24 30/80/24
o 立方体.002
v 5.235917 -1.125477 -9.180136
v 5.106882 0.870349 -9.174767
v 7.254164 -0.983878 -13.311314
v 7.125129 1.011948 -13.305944
v 7.028498 -1.011948 -8.300497
v 6.899463 0.983878 -8.295128
v 9.046744 -0.870349 -12.431675
v 8.917709 1.125477 -12.426306
vt 0.999900 0.000100
vt 0.999900 0.999900
vt 0.000100 0.999900
vt 0.000100 0.000100
vt 0.999900 0.000100
vt 0.999900 0.999900
vt 0.000100 0.999900
vt 0.000100 0.000100
vt 0.000100 0.999900
vt 0.000100 0.000100
vt 0.999900 0.000100
vt 0.999900 0.999900
vt 0.000100 0.999900
vt 0.000100 0.000100
vt 0.999900 0.000100
vt 0.999900 0.999900
vt 0.999900 0.000100
vt 0.000100 0.999900
vt 0.999900 0.000100
vt 0.000100 0.999900
vn -0.8963 -0.0568 -0.4398
vn 0.4387 0.0308 -0.8981
vn 0.8963 0.0568 0.4398
vn -0.4387 -0.0308 0.8981
vn 0.0645 -0.9979 -0.0027
vn -0.0645 0.9979 0.0027
usemtl 材质.002
s off
f 33/81/25 34/82/25 36/83/25 35/84/25
f 35/85/26 36/86/26 40/87/26 39/88/26
f 39/89/27 40/90/27 38/91/27 37/92/27
f 37/93/28 38/94/28 34/95/28 33/96/28
f 35/84/29 39/97/29 37/92/29 33/98/29
f 40/90/30 36/99/30 34/82/30 38/100/30
o 立方体.005
v -2.270090 -1.122156 -10.074534
v -2.381161 0.873670 -10.008640
v -2.451305 -0.980557 -14.668782
v -2.562376 1.015268 -14.602888
v -0.274731 -1.008628 -10.149740
v -0.385802 0.987198 -10.083846
v -0.455946 -0.867029 -14.743988
v -0.567018 1.128797 -14.678094
vt 0.999900 0.000100
vt 0.999900 0.999900
vt 0.000100 0.999900
vt 0.000100 0.000100
vt 0.999900 0.000100
vt 0.999900 0.999900
vt 0.000100 0.999900
vt 0.000100 0.000100
vt 0.000100 0.999900
vt 0.000100 0.000100
vt 0.999900 0.000100
vt 0.999900 0.999900
vt 0.000100 0.999900
vt 0.000100 0.000100
vt 0.999900 0.000100
vt 0.999900 0.999900
vt 0.999900 0.000100
vt 0.000100 0.999900
vt 0.999900 0.000100
vt 0.000100 0.999900
vn -0.9977 -0.0568 0.0376
vn -0.0394 0.0308 -0.9987
vn 0.9977 0.0568 -0.0376
vn 0.0394 -0.0308 0.9987
vn 0.0555 -0.9979 -0.0329
vn -0.0555 0.9979 0.0329
usemtl 材质.005
s off
f 41/101/31 42/102/31 44/103/31 43/104/31
f 43/105/32 44/106/32 48/107/32 47/108/32
f 47/109/33 48/110/33 46/111/33 45/112/33
f 45/113/34 46/114/34 42/115/34 41/116/34
f 43/104/35 47/117/35 45/112/35 41/118/35
f 48/110/36 44/119/36 42/102/36 46/120/36
o 立方体.004
v -1.986935 -1.125477 -4.554882
v -2.098006 0.870349 -4.488988
v -2.168150 -0.983878 -9.149130
v -2.279222 1.011948 -9.083236
v 0.008424 -1.011948 -4.630088
v -0.102648 0.983878 -4.564194
v -0.172792 -0.870349 -9.224336
v -0.283863 1.125477 -9.158442
vt 0.999900 0.000100
vt 0.999900 0.999900
vt 0.000100 0.999900
vt 0.000100 0.000100
vt 0.999900 0.000100
vt 0.999900 0.999900
vt 0.000100 0.999900
vt 0.000100 0.000100
vt 0.000100 0.999900
vt 0.000100 0.000100
vt 0.999900 0.000100
vt 0.999900 0.999900
vt 0.000100 0.999900
vt 0.000100 0.000100
vt 0.999900 0.000100
vt 0.999900 0.999900
vt 0.999900 0.000100
vt 0.000100 0.999900
vt 0.999900 0.000100
vt 0.000100 0.999900
vn -0.9977 -0.0568 0.0376
vn -0.0394 0.0308 -0.9987
vn 0.9977 0.0568 -0.0376
vn 0.0394 -0.0308 0.9987
vn 0.0555 -0.9979 -0.0329
vn -0.0555 0.9979 0.0329
usemtl 材质.004
s off
f 49/121/37 50/122/37 52/123/37 51/124/37
f 51/125/38 52/126/38 56/127/38 55/128/38
f 55/129/39 56/130/39 54/131/39 53/132/39
f 53/133/40 54/134/40 50/135/40 49/136/40
f 51/124/41 55/137/41 53/132/41 49/138/41
f 56/130/42 52/139/42 50/122/42 54/140/42
o 立方体.006
v -5.756589 -1.126426 -1.778503
v -5.803703 0.870686 -1.658168
v -10.206075 -0.914118 -7.044077
v -10.253189 1.082993 -6.923741
v -4.228681 -1.012861 -3.065028
v -4.275795 0.984250 -2.944693
v -8.678166 -0.800554 -8.330602
v -8.725281 1.196558 -8.210266
vt 0.999900 0.000100
vt 0.999900 0.999900
vt 0.000100 0.999900
vt 0.000100 0.000100
vt 0.999900 0.000100
vt 0.999900 0.999900
vt 0.000100 0.999900
vt 0.000100 0.000100
vt 0.000100 0.999900
vt 0.000100 0.000100
vt 0.999900 0.000100
vt 0.999900 0.999900
vt 0.000100 0.999900
vt 0.000100 0.000100
vt 0.999900 0.000100
vt 0.999900 0.999900
vt 0.999900 0.000100
vt 0.000100 0.999900
vt 0.999900 0.000100
vt 0.000100 0.999900
vn -0.7637 -0.0568 0.6431
vn -0.6451 0.0308 -0.7635
vn 0.7637 0.0568 -0.6431
vn 0.6451 -0.0308 0.7635
vn 0.0235 -0.9979 -0.0601
vn -0.0235 0.9979 0.0601
usemtl 材质.006
s off
f 57/141/43 58/142/43 60/143/43 59/144/43
f 59/145/44 60/146/44 64/147/44 63/148/44
f 63/149/45 64/150/45 62/151/45 61/152/45
f 61/153/46 62/154/46 58/155/46 57/156/46
f 59/144/47 63/157/47 61/152/47 57/158/47
f 64/150/48 60/159/48 58/142/48 62/160/48
