# Blender v3.0.1 OBJ File: 'fist.blend'
# www.blender.org
mtllib fist.mtl
o Cube
v 3.220758 2.386603 -5.107358
v 3.220758 -2.653397 -5.107358
v 3.220758 2.386603 3.082642
v 3.220758 -2.653397 3.082642
v -4.969242 2.386603 -5.107358
v -4.969242 -2.653397 -5.107358
v -4.969242 2.386603 3.082642
v -4.969242 -2.653397 3.082642
vt 0.000100 0.000100
vt 0.999900 0.000100
vt 0.999900 0.999900
vt 0.000100 0.999900
vt 0.000100 0.999900
vt 0.000100 0.000100
vt 0.999900 0.000100
vt 0.999900 0.999900
vt 0.999900 0.000100
vt 0.000100 0.999900
vt 0.000100 0.000100
vt 0.999900 0.000100
vt 0.999900 0.999900
vt 0.000100 0.999900
vt 0.000100 0.999900
vt 0.999900 0.000100
vt 0.999900 0.000100
vt 0.999900 0.999900
vt 0.000100 0.999900
vt 0.000100 0.000100
vn 0.0000 1.0000 0.0000
vn 0.0000 0.0000 1.0000
vn -1.0000 0.0000 0.0000
vn 0.0000 -1.0000 0.0000
vn 1.0000 0.0000 0.0000
vn 0.0000 0.0000 -1.0000
usemtl Material
s off
f 1/1/1 5/2/1 7/3/1 3/4/1
f 4/5/2 3/6/2 7/7/2 8/8/2
f 8/9/3 7/3/3 5/10/3 6/11/3
f 6/11/4 2/12/4 4/13/4 8/14/4
f 2/15/5 1/1/5 3/16/5 4/13/5
f 6/17/6 5/18/6 1/19/6 2/20/6
o 立方体
v -3.773445 -0.000057 4.763885
v -2.593223 2.485415 4.699913
v -3.064138 -0.404518 2.135600
v -1.883917 2.080954 2.071627
v 1.373772 -2.398947 6.522146
v 2.553993 0.086524 6.458174
v 2.083078 -2.803409 3.893861
v 3.263299 -0.317937 3.829889
vt 0.999900 0.000100
vt 0.999900 0.999900
vt 0.000100 0.999900
vt 0.000100 0.000100
vt 0.999900 0.000100
vt 0.999900 0.999900
vt 0.000100 0.999900
vt 0.000100 0.000100
vt 0.000100 0.999900
vt 0.000100 0.000100
vt 0.999900 0.000100
vt 0.999900 0.999900
vt 0.000100 0.999900
vt 0.000100 0.000100
vt 0.999900 0.000100
vt 0.999900 0.999900
vt 0.999900 0.000100
vt 0.000100 0.999900
vt 0.999900 0.000100
vt 0.000100 0.999900
vn -0.8658 0.4035 -0.2958
vn 0.2577 -0.1470 -0.9550
vn 0.8658 -0.4035 0.2958
vn -0.2577 0.1470 0.9550
vn -0.4288 -0.9031 0.0232
vn 0.4288 0.9031 -0.0232
usemtl 材质
s off
f 9/21/7 10/22/7 12/23/7 11/24/7
f 11/25/8 12/26/8 16/27/8 15/28/8
f 15/29/9 16/30/9 14/31/9 13/32/9
f 13/33/10 14/34/10 10/35/10 9/36/10
f 11/24/11 15/37/11 13/32/11 9/38/11
f 16/30/12 12/39/12 10/22/12 14/40/12
o 立方体.001
v 2.325805 0.438950 3.325595
v 3.545004 3.026064 3.325595
v 2.325805 0.438950 0.465595
v 3.545004 3.026064 0.465595
v 4.912919 -0.780248 3.325595
v 6.132117 1.806865 3.325595
v 4.912919 -0.780248 0.465595
v 6.132117 1.806865 0.465595
vt 0.999900 0.000100
vt 0.999900 0.999900
vt 0.000100 0.999900
vt 0.000100 0.000100
vt 0.999900 0.000100
vt 0.999900 0.999900
vt 0.000100 0.999900
vt 0.000100 0.000100
vt 0.000100 0.999900
vt 0.000100 0.000100
vt 0.999900 0.000100
vt 0.999900 0.999900
vt 0.000100 0.999900
vt 0.000100 0.000100
vt 0.999900 0.000100
vt 0.999900 0.999900
vt 0.999900 0.000100
vt 0.000100 0.999900
vt 0.999900 0.000100
vt 0.000100 0.999900
vn -0.9046 0.4263 0.0000
vn 0.0000 0.0000 -1.0000
vn 0.9046 -0.4263 0.0000
vn 0.0000 0.0000 1.0000
vn -0.4263 -0.9046 0.0000
vn 0.4263 0.9046 0.0000
usemtl 材质.001
s off
f 17/41/13 18/42/13 20/43/13 19/44/13
f 19/45/14 20/46/14 24/47/14 23/48/14
f 23/49/15 24/50/15 22/51/15 21/52/15
f 21/53/16 22/54/16 18/55/16 17/56/16
f 19/44/17 23/57/17 21/52/17 17/58/17
f 24/50/18 20/59/18 18/42/18 22/60/18
o 立方体.002
v 3.923795 0.887586 3.207541
v 6.752917 1.306712 3.207541
v 3.923795 0.887586 0.347541
v 6.752917 1.306712 0.347541
v 4.342921 -1.941536 3.207541
v 7.172043 -1.522411 3.207541
v 4.342921 -1.941536 0.347541
v 7.172043 -1.522411 0.347541
vt 0.999900 0.000100
vt 0.999900 0.999900
vt 0.000100 0.999900
vt 0.000100 0.000100
vt 0.999900 0.000100
vt 0.999900 0.999900
vt 0.000100 0.999900
vt 0.000100 0.000100
vt 0.000100 0.999900
vt 0.000100 0.000100
vt 0.999900 0.000100
vt 0.999900 0.999900
vt 0.000100 0.999900
vt 0.000100 0.000100
vt 0.999900 0.000100
vt 0.999900 0.999900
vt 0.999900 0.000100
vt 0.000100 0.999900
vt 0.999900 0.000100
vt 0.000100 0.999900
vn -0.1465 0.9892 0.0000
vn 0.0000 0.0000 -1.0000
vn 0.1465 -0.9892 0.0000
vn -0.0000 0.0000 1.0000
vn -0.9892 -0.1465 0.0000
vn 0.9892 0.1465 0.0000
usemtl 材质.002
s off
f 25/61/19 26/62/19 28/63/19 27/64/19
f 27/65/20 28/66/20 32/67/20 31/68/20
f 31/69/21 32/70/21 30/71/21 29/72/21
f 29/73/22 30/74/22 26/75/22 25/76/22
f 27/64/23 31/77/23 29/72/23 25/78/23
f 32/70/24 28/79/24 26/62/24 30/80/24
o 立方体.003
v 5.315409 -1.270894 2.709854
v 7.148614 -2.075481 2.709854
v 5.315409 -1.270894 0.707854
v 7.148614 -2.075481 0.707854
v 4.510821 -3.104099 2.709854
v 6.344027 -3.908687 2.709854
v 4.510821 -3.104099 0.707854
v 6.344027 -3.908687 0.707854
vt 0.999900 0.000100
vt 0.999900 0.999900
vt 0.000100 0.999900
vt 0.000100 0.000100
vt 0.999900 0.000100
vt 0.999900 0.999900
vt 0.000100 0.999900
vt 0.000100 0.000100
vt 0.000100 0.999900
vt 0.000100 0.000100
vt 0.999900 0.000100
vt 0.999900 0.999900
vt 0.000100 0.999900
vt 0.000100 0.000100
vt 0.999900 0.000100
vt 0.999900 0.999900
vt 0.999900 0.000100
vt 0.000100 0.999900
vt 0.999900 0.000100
vt 0.000100 0.999900
vn 0.4019 0.9157 0.0000
vn 0.0000 0.0000 -1.0000
vn -0.4019 -0.9157 0.0000
vn 0.0000 0.0000 1.0000
vn -0.9157 0.4019 0.0000
vn 0.9157 -0.4019 0.0000
usemtl 材质.003
s off
f 33/81/25 34/82/25 36/83/25 35/84/25
f 35/85/26 36/86/26 40/87/26 39/88/26
f 39/89/27 40/90/27 38/91/27 37/92/27
f 37/93/28 38/94/28 34/95/28 33/96/28
f 35/84/29 39/97/29 37/92/29 33/98/29
f 40/90/30 36/99/30 34/82/30 38/100/30
o 立方体.006
v 2.206378 0.333058 0.518863
v 3.425576 2.920171 0.518863
v 2.206378 0.333058 -2.341136
v 3.425576 2.920171 -2.341136
v 4.793491 -0.886141 0.518863
v 6.012689 1.700973 0.518863
v 4.793491 -0.886141 -2.341136
v 6.012689 1.700973 -2.341136
vt 0.999900 0.000100
vt 0.999900 0.999900
vt 0.000100 0.999900
vt 0.000100 0.000100
vt 0.999900 0.000100
vt 0.999900 0.999900
vt 0.000100 0.999900
vt 0.000100 0.000100
vt 0.000100 0.999900
vt 0.000100 0.000100
vt 0.999900 0.000100
vt 0.999900 0.999900
vt 0.000100 0.999900
vt 0.000100 0.000100
vt 0.999900 0.000100
vt 0.999900 0.999900
vt 0.999900 0.000100
vt 0.000100 0.999900
vt 0.999900 0.000100
vt 0.000100 0.999900
vn -0.9046 0.4263 0.0000
vn 0.0000 0.0000 -1.0000
vn 0.9046 -0.4263 0.0000
vn 0.0000 0.0000 1.0000
vn -0.4263 -0.9046 0.0000
vn 0.4263 0.9046 0.0000
usemtl 材质.006
s off
f 41/101/31 42/102/31 44/103/31 43/104/31
f 43/105/32 44/106/32 48/107/32 47/108/32
f 47/109/33 48/110/33 46/111/33 45/112/33
f 45/113/34 46/114/34 42/115/34 41/116/34
f 43/104/35 47/117/35 45/112/35 41/118/35
f 48/110/36 44/119/36 42/102/36 46/120/36
o 立方体.005
v 3.804368 0.781693 0.400810
v 6.633491 1.200819 0.400810
v 3.804368 0.781693 -2.459190
v 6.633491 1.200819 -2.459190
v 4.223494 -2.047429 0.400810
v 7.052616 -1.628303 0.400810
v 4.223494 -2.047429 -2.459190
v 7.052616 -1.628303 -2.459190
vt 0.999900 0.000100
vt 0.999900 0.999900
vt 0.000100 0.999900
vt 0.000100 0.000100
vt 0.999900 0.000100
vt 0.999900 0.999900
vt 0.000100 0.999900
vt 0.000100 0.000100
vt 0.000100 0.999900
vt 0.000100 0.000100
vt 0.999900 0.000100
vt 0.999900 0.999900
vt 0.000100 0.999900
vt 0.000100 0.000100
vt 0.999900 0.000100
vt 0.999900 0.999900
vt 0.999900 0.000100
vt 0.000100 0.999900
vt 0.999900 0.000100
vt 0.000100 0.999900
vn -0.1465 0.9892 0.0000
vn -0.0000 0.0000 -1.0000
vn 0.1465 -0.9892 0.0000
vn -0.0000 0.0000 1.0000
vn -0.9892 -0.1465 0.0000
vn 0.9892 0.1465 0.0000
usemtl 材质.005
s off
f 49/121/37 50/122/37 52/123/37 51/124/37
f 51/125/38 52/126/38 56/127/38 55/128/38
f 55/129/39 56/130/39 54/131/39 53/132/39
f 53/133/40 54/134/40 50/135/40 49/136/40
f 51/124/41 55/137/41 53/132/41 49/138/41
f 56/130/42 52/139/42 50/122/42 54/140/42
o 立方体.004
v 5.195982 -1.376786 -0.096878
v 7.029187 -2.181374 -0.096878
v 5.195982 -1.376786 -2.098878
v 7.029187 -2.181374 -2.098878
v 4.391394 -3.209992 -0.096878
v 6.224599 -4.014580 -0.096878
v 4.391394 -3.209992 -2.098878
v 6.224599 -4.014580 -2.098878
vt 0.999900 0.000100
vt 0.999900 0.999900
vt 0.000100 0.999900
vt 0.000100 0.000100
vt 0.999900 0.000100
vt 0.999900 0.999900
vt 0.000100 0.999900
vt 0.000100 0.000100
vt 0.000100 0.999900
vt 0.000100 0.000100
vt 0.999900 0.000100
vt 0.999900 0.999900
vt 0.000100 0.999900
vt 0.000100 0.000100
vt 0.999900 0.000100
vt 0.999900 0.999900
vt 0.999900 0.000100
vt 0.000100 0.999900
vt 0.999900 0.000100
vt 0.000100 0.999900
vn 0.4019 0.9157 0.0000
vn -0.0000 0.0000 -1.0000
vn -0.4019 -0.9157 0.0000
vn -0.0000 0.0000 1.0000
vn -0.9157 0.4019 0.0000
vn 0.9157 -0.4019 0.0000
usemtl 材质.004
s off
f 57/141/43 58/142/43 60/143/43 59/144/43
f 59/145/44 60/146/44 64/147/44 63/148/44
f 63/149/45 64/150/45 62/151/45 61/152/45
f 61/153/46 62/154/46 58/155/46 57/156/46
f 59/144/47 63/157/47 61/152/47 57/158/47
f 64/150/48 60/159/48 58/142/48 62/160/48
o 立方体.009
v 5.159153 -1.465546 -2.971554
v 6.992359 -2.270134 -2.971554
v 5.159153 -1.465546 -4.973554
v 6.992359 -2.270134 -4.973554
v 4.354566 -3.298752 -2.971554
v 6.187771 -4.103339 -2.971554
v 4.354566 -3.298752 -4.973554
v 6.187771 -4.103339 -4.973554
vt 0.999900 0.000100
vt 0.999900 0.999900
vt 0.000100 0.999900
vt 0.000100 0.000100
vt 0.999900 0.000100
vt 0.999900 0.999900
vt 0.000100 0.999900
vt 0.000100 0.000100
vt 0.000100 0.999900
vt 0.000100 0.000100
vt 0.999900 0.000100
vt 0.999900 0.999900
vt 0.000100 0.999900
vt 0.000100 0.000100
vt 0.999900 0.000100
vt 0.999900 0.999900
vt 0.999900 0.000100
vt 0.000100 0.999900
vt 0.999900 0.000100
vt 0.000100 0.999900
vn 0.4019 0.9157 0.0000
vn 0.0000 0.0000 -1.0000
vn -0.4019 -0.9157 0.0000
vn -0.0000 0.0000 1.0000
vn -0.9157 0.4019 0.0000
vn 0.9157 -0.4019 0.0000
usemtl 材质.009
s off
f 65/161/49 66/162/49 68/163/49 67/164/49
f 67/165/50 68/166/50 72/167/50 71/168/50
f 71/169/51 72/170/51 70/171/51 69/172/51
f 69/173/52 70/174/52 66/175/52 65/176/52
f 67/164/53 71/177/53 69/172/53 65/178/53
f 72/170/54 68/179/54 66/162/54 70/180/54
o 立方体.008
v 3.767540 0.692934 -2.473866
v 6.596663 1.112060 -2.473866
v 3.767540 0.692934 -5.333866
v 6.596663 1.112060 -5.333866
v 4.186666 -2.136189 -2.473866
v 7.015788 -1.717063 -2.473866
v 4.186666 -2.136189 -5.333866
v 7.015788 -1.717063 -5.333866
vt 0.999900 0.000100
vt 0.999900 0.999900
vt 0.000100 0.999900
vt 0.000100 0.000100
vt 0.999900 0.000100
vt 0.999900 0.999900
vt 0.000100 0.999900
vt 0.000100 0.000100
vt 0.000100 0.999900
vt 0.000100 0.000100
vt 0.999900 0.000100
vt 0.999900 0.999900
vt 0.000100 0.999900
vt 0.000100 0.000100
vt 0.999900 0.000100
vt 0.999900 0.999900
vt 0.999900 0.000100
vt 0.000100 0.999900
vt 0.999900 0.000100
vt 0.000100 0.999900
vn -0.1465 0.9892 0.0000
vn -0.0000 0.0000 -1.0000
vn 0.1465 -0.9892 0.0000
vn -0.0000 0.0000 1.0000
vn -0.9892 -0.1465 0.0000
vn 0.9892 0.1465 0.0000
usemtl 材质.008
s off
f 73/181/55 74/182/55 76/183/55 75/184/55
f 75/185/56 76/186/56 80/187/56 79/188/56
f 79/189/57 80/190/57 78/191/57 77/192/57
f 77/193/58 78/194/58 74/195/58 73/196/58
f 75/184/59 79/197/59 77/192/59 73/198/59
f 80/190/60 76/199/60 74/182/60 78/200/60
o 立方体.007
v 2.169549 0.244298 -2.355813
v 3.388748 2.831411 -2.355813
v 2.169549 0.244298 -5.215812
v 3.388748 2.831411 -5.215812
v 4.756663 -0.974900 -2.355813
v 5.975861 1.612213 -2.355813
v 4.756663 -0.974900 -5.215812
v 5.975861 1.612213 -5.215812
vt 0.999900 0.000100
vt 0.999900 0.999900
vt 0.000100 0.999900
vt 0.000100 0.000100
vt 0.999900 0.000100
vt 0.999900 0.999900
vt 0.000100 0.999900
vt 0.000100 0.000100
vt 0.000100 0.999900
vt 0.000100 0.000100
vt 0.999900 0.000100
vt 0.999900 0.999900
vt 0.000100 0.999900
vt 0.000100 0.000100
vt 0.999900 0.000100
vt 0.999900 0.999900
vt 0.999900 0.000100
vt 0.000100 0.999900
vt 0.999900 0.000100
vt 0.000100 0.999900
vn -0.9046 0.4263 0.0000
vn 0.0000 0.0000 -1.0000
vn 0.9046 -0.4263 0.0000
vn -0.0000 0.0000 1.0000
vn -0.4263 -0.9046 0.0000
vn 0.4263 0.9046 0.0000
usemtl 材质.007
s off
f 81/201/61 82/202/61 84/203/61 83/204/61
f 83/205/62 84/206/62 88/207/62 87/208/62
f 87/209/63 88/210/63 86/211/63 85/212/63
f 85/213/64 86/214/64 82/215/64 81/216/64
f 83/204/65 87/217/65 85/212/65 81/218/65
f 88/210/66 84/219/66 82/202/66 86/220/66
o 立方体.010
v 4.743555 -2.948714 -3.110992
v 5.344573 -3.988743 -3.110992
v 4.743555 -2.948714 -4.312192
v 5.344573 -3.988743 -4.312192
v 3.703526 -3.549732 -3.110992
v 4.304544 -4.589760 -3.110992
v 3.703526 -3.549732 -4.312192
v 4.304544 -4.589760 -4.312192
vt 0.999900 0.000100
vt 0.999900 0.999900
vt 0.000100 0.999900
vt 0.000100 0.000100
vt 0.999900 0.000100
vt 0.999900 0.999900
vt 0.000100 0.999900
vt 0.000100 0.000100
vt 0.000100 0.999900
vt 0.000100 0.000100
vt 0.999900 0.000100
vt 0.999900 0.999900
vt 0.000100 0.999900
vt 0.000100 0.000100
vt 0.999900 0.000100
vt 0.999900 0.999900
vt 0.999900 0.000100
vt 0.000100 0.999900
vt 0.999900 0.000100
vt 0.000100 0.999900
vn 0.8658 0.5003 0.0000
vn 0.0000 0.0000 -1.0000
vn -0.8658 -0.5003 0.0000
vn -0.0000 0.0000 1.0000
vn -0.5003 0.8658 0.0000
vn 0.5003 -0.8658 0.0000
usemtl 材质.010
s off
f 89/221/67 90/222/67 92/223/67 91/224/67
f 91/225/68 92/226/68 96/227/68 95/228/68
f 95/229/69 96/230/69 94/231/69 93/232/69
f 93/233/70 94/234/70 90/235/70 89/236/70
f 91/224/71 95/237/71 93/232/71 89/238/71
f 96/230/72 92/239/72 90/222/72 94/240/72
o 立方体.011
v 4.919167 -2.806260 2.381570
v 5.520185 -3.846289 2.381570
v 4.919167 -2.806260 1.180370
v 5.520185 -3.846289 1.180370
v 3.879138 -3.407278 2.381570
v 4.480156 -4.447307 2.381570
v 3.879138 -3.407278 1.180370
v 4.480156 -4.447307 1.180370
vt 0.999900 0.000100
vt 0.999900 0.999900
vt 0.000100 0.999900
vt 0.000100 0.000100
vt 0.999900 0.000100
vt 0.999900 0.999900
vt 0.000100 0.999900
vt 0.000100 0.000100
vt 0.000100 0.999900
vt 0.000100 0.000100
vt 0.999900 0.000100
vt 0.999900 0.999900
vt 0.000100 0.999900
vt 0.000100 0.000100
vt 0.999900 0.000100
vt 0.999900 0.999900
vt 0.999900 0.000100
vt 0.000100 0.999900
vt 0.999900 0.000100
vt 0.000100 0.999900
vn 0.8658 0.5003 0.0000
vn 0.0000 0.0000 -1.0000
vn -0.8658 -0.5003 0.0000
vn 0.0000 0.0000 1.0000
vn -0.5003 0.8658 0.0000
vn 0.5003 -0.8658 0.0000
usemtl 材质.011
s off
f 97/241/73 98/242/73 100/243/73 99/244/73
f 99/245/74 100/246/74 104/247/74 103/248/74
f 103/249/75 104/250/75 102/251/75 101/252/75
f 101/253/76 102/254/76 98/255/76 97/256/76
f 99/244/77 103/257/77 101/252/77 97/258/77
f 104/250/78 100/259/78 98/242/78 102/260/78
o 立方体.012
v 4.860225 -2.793333 -0.637191
v 5.461243 -3.833361 -0.637191
v 4.860225 -2.793333 -1.838391
v 5.461243 -3.833361 -1.838391
v 3.820197 -3.394351 -0.637191
v 4.421215 -4.434379 -0.637191
v 3.820197 -3.394351 -1.838391
v 4.421215 -4.434379 -1.838391
vt 0.999900 0.000100
vt 0.999900 0.999900
vt 0.000100 0.999900
vt 0.000100 0.000100
vt 0.999900 0.000100
vt 0.999900 0.999900
vt 0.000100 0.999900
vt 0.000100 0.000100
vt 0.000100 0.999900
vt 0.000100 0.000100
vt 0.999900 0.000100
vt 0.999900 0.999900
vt 0.000100 0.999900
vt 0.000100 0.000100
vt 0.999900 0.000100
vt 0.999900 0.999900
vt 0.999900 0.000100
vt 0.000100 0.999900
vt 0.999900 0.000100
vt 0.000100 0.999900
vn 0.8658 0.5003 0.0000
vn 0.0000 0.0000 -1.0000
vn -0.8658 -0.5003 0.0000
vn 0.0000 0.0000 1.0000
vn -0.5003 0.8658 0.0000
vn 0.5003 -0.8658 0.0000
usemtl 材质.012
s off
f 105/261/79 106/262/79 108/263/79 107/264/79
f 107/265/80 108/266/80 112/267/80 111/268/80
f 111/269/81 112/270/81 110/271/81 109/272/81
f 109/273/82 110/274/82 106/275/82 105/276/82
f 107/264/83 111/277/83 109/272/83 105/278/83
f 112/270/84 108/279/84 106/262/84 110/280/84
o 立方体.013
v 3.725558 0.032929 6.250190
v 5.490245 -2.116390 5.582430
v 3.548285 0.746104 3.486216
v 5.312973 -1.403215 2.818456
v 1.481888 -1.713899 5.943366
v 3.246576 -3.863218 5.275606
v 1.304616 -1.000724 3.179391
v 3.069304 -3.150043 2.511631
vt 0.999900 0.000100
vt 0.999900 0.999900
vt 0.000100 0.999900
vt 0.000100 0.000100
vt 0.999900 0.000100
vt 0.999900 0.999900
vt 0.000100 0.999900
vt 0.000100 0.000100
vt 0.000100 0.999900
vt 0.000100 0.000100
vt 0.999900 0.000100
vt 0.999900 0.999900
vt 0.000100 0.999900
vt 0.000100 0.000100
vt 0.999900 0.000100
vt 0.999900 0.999900
vt 0.999900 0.000100
vt 0.000100 0.999900
vt 0.999900 0.000100
vt 0.000100 0.999900
vn 0.7845 0.6108 0.1073
vn -0.0620 0.2494 -0.9664
vn -0.7845 -0.6108 -0.1073
vn 0.0620 -0.2494 0.9664
vn -0.6170 0.7515 0.2335
vn 0.6170 -0.7515 -0.2335
usemtl 材质.013
s off
f 113/281/85 114/282/85 116/283/85 115/284/85
f 115/285/86 116/286/86 120/287/86 119/288/86
f 119/289/87 120/290/87 118/291/87 117/292/87
f 117/293/88 118/294/88 114/295/88 113/296/88
f 115/284/89 119/297/89 117/292/89 113/298/89
f 120/290/90 116/299/90 114/282/90 118/300/90
o 立方体.014_立方体.016
v 6.392683 -2.988616 3.759398
v 6.561527 -4.810085 4.100321
v 6.707327 -3.556411 0.569974
v 6.876171 -5.377880 0.910897
v 4.844054 -3.155212 3.636281
v 5.012898 -4.976682 3.977204
v 5.158699 -3.723007 0.446857
v 5.327543 -5.544477 0.787779
vt 0.999900 0.000100
vt 0.999900 0.999900
vt 0.000100 0.999900
vt 0.000100 0.000100
vt 0.999900 0.000100
vt 0.999900 0.999900
vt 0.000100 0.999900
vt 0.000100 0.000100
vt 0.000100 0.999900
vt 0.000100 0.000100
vt 0.999900 0.000100
vt 0.999900 0.999900
vt 0.000100 0.999900
vt 0.000100 0.000100
vt 0.999900 0.000100
vt 0.999900 0.999900
vt 0.999900 0.000100
vt 0.000100 0.999900
vt 0.999900 0.000100
vt 0.000100 0.999900
vn 0.9912 0.1066 0.0788
vn 0.0967 -0.1744 -0.9799
vn -0.9912 -0.1066 -0.0788
vn -0.0967 0.1744 0.9799
vn -0.0907 0.9789 -0.1832
vn 0.0907 -0.9789 0.1832
usemtl 材质.016
s off
f 121/301/91 122/302/91 124/303/91 123/304/91
f 123/305/92 124/306/92 128/307/92 127/308/92
f 127/309/93 128/310/93 126/311/93 125/312/93
f 125/313/94 126/314/94 122/315/94 121/316/94
f 123/304/95 127/317/95 125/312/95 121/318/95
f 128/310/96 124/319/96 122/302/96 126/320/96
o 立方体.015_立方体.017
v 5.569276 -2.183694 4.577814
v 5.916313 -4.020212 3.860338
v 4.366073 -1.803818 3.023467
v 4.713110 -3.640335 2.305991
v 4.007268 -2.884337 5.615713
v 4.354305 -4.720855 4.898237
v 2.804065 -2.504460 4.061365
v 3.151102 -4.340978 3.343889
vt 0.999900 0.000100
vt 0.999900 0.999900
vt 0.000100 0.999900
vt 0.000100 0.000100
vt 0.999900 0.000100
vt 0.999900 0.999900
vt 0.000100 0.999900
vt 0.000100 0.000100
vt 0.000100 0.999900
vt 0.000100 0.000100
vt 0.999900 0.000100
vt 0.999900 0.999900
vt 0.000100 0.999900
vt 0.000100 0.000100
vt 0.999900 0.000100
vt 0.999900 0.999900
vt 0.999900 0.000100
vt 0.000100 0.999900
vt 0.999900 0.000100
vt 0.000100 0.999900
vn 0.7802 0.3500 -0.5184
vn -0.6010 0.1897 -0.7764
vn -0.7802 -0.3500 0.5184
vn 0.6010 -0.1897 0.7764
vn -0.1733 0.9173 0.3584
vn 0.1733 -0.9173 -0.3584
usemtl 材质.017
s off
f 129/321/97 130/322/97 132/323/97 131/324/97
f 131/325/98 132/326/98 136/327/98 135/328/98
f 135/329/99 136/330/99 134/331/99 133/332/99
f 133/333/100 134/334/100 130/335/100 129/336/100
f 131/324/101 135/337/101 133/332/101 129/338/101
f 136/330/102 132/339/102 130/322/102 134/340/102
